<svg xmlns="http://www.w3.org/2000/svg" viewBox="0 0 100 100">
  <rect width="100" height="100" fill="#000000"/>
  <defs>
    <linearGradient id="g1" x1="0%" y1="0%" x2="100%" y2="100%">
      <stop offset="0%" style="stop-color:#00c6ff"/>
      <stop offset="100%" style="stop-color:#7b2fff"/>
    </linearGradient>
  </defs>
  <!-- Gear -->
  <path d="M50 20 L55 15 L60 20 L65 18 L66 24 L72 25 L70 31 L75 35 L71 40 L74 46 L68 48 L68 54 L62 54 L60 60 L54 58 L50 63 L46 58 L40 60 L38 54 L32 54 L32 48 L26 46 L29 40 L25 35 L30 31 L28 25 L34 24 L35 18 L40 20 L45 15 Z" fill="url(#g1)" opacity="0.9"/>
  <!-- Globe circle -->
  <circle cx="50" cy="42" r="16" fill="none" stroke="#000" stroke-width="2.5"/>
  <ellipse cx="50" cy="42" rx="8" ry="16" fill="none" stroke="#000" stroke-width="2"/>
  <line x1="34" y1="42" x2="66" y2="42" stroke="#000" stroke-width="2"/>
  <line x1="36" y1="34" x2="64" y2="34" stroke="#000" stroke-width="1.5"/>
  <line x1="36" y1="50" x2="64" y2="50" stroke="#000" stroke-width="1.5"/>
  <!-- Circuit nodes -->
  <circle cx="72" cy="22" r="4" fill="url(#g1)"/>
  <circle cx="80" cy="30" r="3" fill="url(#g1)" opacity="0.7"/>
  <circle cx="78" cy="55" r="4" fill="url(#g1)" opacity="0.6"/>
  <circle cx="55" cy="75" r="4" fill="url(#g1)" opacity="0.5"/>
  <line x1="68" y1="26" x2="72" y2="22" stroke="url(#g1)" stroke-width="1.5"/>
  <line x1="72" y1="22" x2="80" y2="30" stroke="url(#g1)" stroke-width="1.5"/>
  <line x1="74" y1="50" x2="78" y2="55" stroke="url(#g1)" stroke-width="1.5"/>
  <line x1="60" y1="68" x2="55" y2="75" stroke="url(#g1)" stroke-width="1.5"/>
</svg>
